<?xml version="1.0" encoding="UTF-8"?>
<!DOCTYPE svg PUBLIC "-//W3C//DTD SVG 1.1//EN" "http://www.w3.org/Graphics/SVG/1.1/DTD/svg11.dtd">
<!-- Creator: CorelDRAW -->
<svg xmlns="http://www.w3.org/2000/svg" xml:space="preserve" width="210mm" height="297mm" version="1.1" style="shape-rendering:geometricPrecision; text-rendering:geometricPrecision; image-rendering:optimizeQuality; fill-rule:evenodd; clip-rule:evenodd"
viewBox="0 0 21000 29700"
 xmlns:xlink="http://www.w3.org/1999/xlink">
 <defs>
  <style type="text/css">
   <![CDATA[
    .fil0 {fill:#FEFEFE}
    .fil1 {fill:#00913F;fill-rule:nonzero}
    .fil2 {fill:#2B2B2A;fill-rule:nonzero}
    .fil3 {fill:white;fill-rule:nonzero}
   ]]>
  </style>
 </defs>
 <g id="Layer_x0020_1">
  <metadata id="CorelCorpID_0Corel-Layer"/>
  <g id="Halal_x0020_MUI.cdr">
   <circle class="fil0" cx="10500" cy="14850" r="6500"/>
   <path class="fil1" d="M10500 9877c2746,0 4973,2227 4973,4973 0,2746 -2227,4973 -4973,4973 -2746,0 -4973,-2227 -4973,-4973 0,-2746 2227,-4973 4973,-4973z"/>
   <path class="fil2" d="M5004 15150l-516 -171 -22 -310 21 -1 2 25c1,22 6,40 15,53 6,9 16,16 28,20 10,4 33,4 71,2l501 -36c39,-2 63,-6 73,-11 9,-5 17,-14 23,-27 7,-13 9,-30 8,-52l-2 -24 21 -2 28 398 -21 1 -2 -25c-1,-22 -7,-40 -15,-53 -6,-9 -16,-16 -29,-20 -9,-4 -33,-4 -71,-2l-564 40 714 243 1 13 -668 345 536 -38c37,-2 60,-5 69,-7 18,-7 33,-18 43,-35 11,-18 15,-43 13,-78l20 -2 18 261 -20 1 -1 -8c0,-17 -5,-32 -11,-46 -7,-14 -16,-25 -26,-32 -10,-7 -24,-11 -42,-14 -4,-1 -23,0 -57,3l-481 33c-39,3 -63,7 -72,11 -9,5 -17,14 -24,27 -6,14 -8,31 -7,52l2 24 -21 2 -22 -311 487 -249zm217 -1726l0 0 -65 261 64 49c22,16 40,26 56,30 20,5 38,1 52,-14 8,-8 18,-31 31,-69l20 5 -61 246 -20 -5c2,-27 -3,-52 -17,-73 -14,-22 -46,-52 -96,-91l-524 -412 2 -11 674 -115c63,-11 105,-23 124,-36 14,-9 25,-25 33,-47l20 5 -90 358 -20 -5 4 -15c7,-29 8,-50 3,-64 -4,-9 -11,-15 -22,-18 -7,-2 -14,-2 -21,-2 -4,0 -19,2 -45,6l-102 17zm-45 8l0 0 -282 47 226 177 56 -224zm52 -1408l0 0 -18 -11 203 -351 18 11 -12 21c-12,20 -17,37 -17,53 0,11 4,22 12,33 6,8 25,22 58,41l323 186c64,37 106,70 128,99 21,29 32,65 33,109 0,43 -12,88 -39,133 -32,56 -72,92 -121,110 -49,17 -91,16 -127,-5 -22,-13 -37,-31 -43,-53 -6,-22 -3,-43 8,-63 12,-20 28,-33 48,-39 21,-6 40,-4 59,7 9,5 16,11 22,17 2,3 7,13 15,29 8,17 15,27 21,30 8,5 18,5 29,0 16,-7 30,-21 41,-40 8,-14 11,-28 9,-41 -2,-13 -9,-26 -22,-39 -13,-12 -54,-38 -122,-78l-353 -204c-34,-19 -56,-30 -67,-31 -11,-1 -22,2 -35,9 -12,8 -24,21 -35,39l-16 28zm917 -1249l0 0 223 216 10 -11c34,-35 47,-71 41,-107 -7,-37 -30,-78 -68,-124l15 -15 287 277 -15 16c-34,-27 -66,-45 -97,-54 -30,-9 -55,-10 -75,-3 -20,7 -43,24 -68,50l155 149c30,29 49,46 59,50 9,4 19,5 30,2 11,-3 24,-12 40,-28l31 -33c50,-51 77,-104 83,-157 7,-54 -8,-111 -44,-172l15 -14 150 192 -458 475 -15 -15 18 -18c15,-16 25,-32 29,-47 3,-10 1,-22 -4,-35 -4,-9 -19,-27 -47,-53l-360 -349c-25,-24 -41,-38 -48,-42 -12,-6 -24,-8 -36,-6 -18,3 -35,13 -52,31l-18 18 -15 -14 443 -459 162 156 -14 16c-48,-30 -86,-47 -117,-49 -31,-3 -63,5 -96,23 -20,10 -50,36 -90,78l-54 56zm1847 -840l0 0 105 248 -592 328 -10 -18 22 -12c19,-11 33,-23 41,-37 6,-9 8,-20 7,-34 -1,-10 -11,-32 -29,-65l-244 -439c-18,-34 -32,-54 -40,-61 -9,-6 -20,-10 -35,-10 -14,0 -31,5 -49,15l-23 13 -10 -19 356 -197 10 18 -29 16c-20,11 -33,23 -41,37 -6,9 -8,20 -7,34 1,10 10,32 29,65l235 425c19,34 33,55 42,62 10,7 21,10 35,8 10,-1 30,-11 62,-28l56 -31c35,-20 61,-42 78,-68 16,-25 26,-56 28,-93 2,-36 -3,-85 -17,-146l20 -11zm1169 -176l0 0 6 20 -385 103 -6 -20 25 -7c21,-5 37,-14 48,-25 8,-7 13,-18 15,-32 2,-9 -2,-33 -12,-70l-130 -484c-10,-38 -19,-61 -25,-69 -7,-9 -17,-15 -31,-18 -14,-4 -31,-3 -52,2l-24 7 -6 -20 385 -104 6 21 -25 6c-21,6 -37,14 -48,25 -8,8 -13,19 -15,33 -2,9 2,33 12,69l130 485c10,37 18,60 25,69 7,8 17,14 31,18 14,4 31,3 52,-3l24 -6zm1163 -940l0 0 24 253 -23 2c-15,-63 -45,-112 -90,-148 -45,-36 -93,-52 -142,-48 -38,2 -68,15 -88,36 -21,22 -31,47 -29,73 1,17 6,32 15,44 12,17 31,33 56,49 18,11 60,30 126,57 92,38 155,75 189,111 33,37 52,80 55,131 5,63 -16,120 -63,169 -46,49 -107,76 -184,82 -24,1 -47,1 -68,-3 -22,-3 -49,-11 -82,-22 -19,-6 -34,-9 -45,-8 -10,1 -20,5 -30,14 -11,8 -19,20 -24,36l-21 1 -20 -287 21 -1c22,79 58,138 108,178 50,39 102,57 156,53 42,-3 74,-17 97,-42 24,-24 34,-52 32,-82 -1,-18 -7,-35 -18,-51 -10,-16 -26,-31 -47,-45 -20,-14 -56,-31 -107,-52 -71,-29 -123,-54 -155,-76 -32,-22 -57,-47 -76,-76 -18,-28 -28,-60 -31,-96 -4,-60 15,-113 56,-159 42,-46 96,-71 164,-76 25,-1 49,0 72,4 18,3 40,10 66,21 26,10 44,15 55,14 9,0 17,-4 22,-10 5,-7 9,-21 13,-45l16 -1zm2850 646l0 0 344 190 -10 19 -17 -10c-26,-14 -45,-21 -58,-21 -12,0 -23,3 -33,11 -9,7 -25,30 -46,67l-180 327c-34,60 -51,102 -53,126 -1,24 5,49 18,73 14,24 36,45 68,62 36,20 71,29 105,27 35,-2 66,-14 95,-35 28,-22 62,-68 101,-139l151 -272c17,-30 25,-53 26,-69 1,-16 -2,-29 -9,-39 -10,-16 -29,-31 -56,-47l10 -18 231 128 -11 18 -13 -7c-19,-11 -37,-16 -53,-15 -17,1 -32,7 -46,19 -10,8 -23,26 -38,53l-140 253c-44,79 -80,132 -110,161 -29,30 -72,47 -128,54 -56,8 -119,-8 -188,-47 -58,-31 -98,-64 -121,-97 -32,-45 -47,-88 -47,-131 1,-42 17,-91 47,-147l181 -326c21,-39 33,-64 34,-75 0,-12 -3,-24 -10,-35 -8,-12 -25,-25 -54,-40l10 -18zm1537 1819l0 0 -212 166 -470 -487 15 -15 17 18c16,16 31,26 46,31 10,3 22,2 35,-3 9,-3 28,-18 55,-45l361 -348c28,-27 44,-45 48,-55 4,-10 5,-22 1,-36 -3,-14 -12,-29 -27,-44l-18 -18 15 -15 283 293 -15 14 -23 -24c-16,-16 -31,-26 -46,-30 -11,-3 -22,-3 -36,2 -9,3 -27,18 -55,45l-349 337c-28,27 -45,46 -49,57 -4,11 -4,22 1,36 4,9 19,26 44,52l44 46c28,29 57,48 86,58 28,9 61,10 97,3 35,-7 81,-25 137,-54l15 16zm647 1067l0 0 -126 -238 -81 7c-27,2 -47,7 -61,14 -19,10 -29,26 -30,45 -1,12 7,36 23,73l-18 9 -119 -223 18 -10c17,22 37,37 62,43 25,7 69,9 132,4l665 -45 5 10 -423 536c-40,51 -63,87 -68,109 -4,17 -2,36 7,58l-18 10 -173 -326 18 -10 7 13c14,27 28,43 41,50 9,4 18,4 28,-1 6,-4 12,-8 17,-13 3,-2 12,-14 29,-35l65 -80zm28 -37l0 0 179 -223 -287 20 108 203zm527 1552l0 0 533 107 59 305 -21 4 -5 -25c-4,-22 -11,-38 -21,-50 -7,-8 -18,-14 -31,-17 -9,-3 -33,0 -70,7l-493 96c-38,7 -62,14 -71,20 -9,6 -15,16 -20,30 -5,14 -5,31 -1,52l5 24 -21 4 -76 -391 21 -4 4 25c5,22 12,39 22,51 7,8 18,13 31,17 10,2 33,-1 71,-8l555 -108 -739 -154 -3 -14 622 -423 -528 103c-36,7 -59,12 -67,16 -17,8 -30,22 -39,40 -8,18 -9,44 -3,79l-20 4 -50 -257 21 -4 1 8c3,17 9,32 17,45 9,13 19,23 29,28 11,6 26,9 44,9 4,0 23,-3 57,-9l473 -93c38,-7 61,-13 70,-19 8,-6 15,-16 20,-30 4,-14 5,-31 1,-52l-5 -24 21 -4 59 306 -452 306zm-4 1740l0 0 33 -267 -70 -41c-24,-14 -43,-21 -59,-23 -22,-3 -38,4 -50,20 -8,9 -15,33 -23,72l-20 -3 30 -251 21 2c1,28 9,52 26,71 16,20 51,46 106,79l570 345 -1 11 -654 196c-62,19 -102,36 -119,51 -13,11 -22,28 -27,51l-20 -2 45 -367 20 3 -2 15c-3,29 -1,51 5,63 5,9 13,15 25,16 6,1 13,0 20,-1 4,0 19,-4 44,-12l100 -28zm43 -14l0 0 275 -81 -247 -148 -28 229z"/>
   <path class="fil2" d="M5390 18004l-18 10 -200 -347 18 -10 13 22c11,19 23,33 37,41 9,5 21,7 35,5 9,0 31,-10 64,-30l437 -252c33,-19 54,-33 60,-42 7,-8 10,-20 10,-34 0,-15 -6,-32 -16,-50l-13 -22 18 -11 200 347 -18 11 -12 -22c-12,-20 -24,-33 -38,-41 -9,-6 -21,-8 -35,-6 -9,1 -31,11 -64,30l-437 252c-33,19 -54,33 -60,42 -6,9 -9,20 -10,35 0,15 6,31 16,50l13 22zm1229 396l0 0 -90 600 241 -224c34,-32 52,-58 55,-78 3,-28 -9,-58 -39,-88l15 -15 173 185 -15 15c-26,-21 -44,-33 -57,-37 -12,-4 -26,-3 -41,3 -15,5 -36,21 -62,45l-467 435 -13 -14 113 -814 -356 332c-32,30 -47,58 -44,83 2,26 12,48 30,67l12 13 -15 14 -185 -198 15 -15c29,31 55,46 79,47 24,1 50,-13 80,-41l395 -368 4 -26c4,-26 4,-45 0,-59 -3,-13 -13,-29 -29,-46l16 -15 185 199zm471 1430l0 0 11 -18 21 13c20,11 36,17 50,17 14,0 26,-3 37,-11 7,-5 21,-24 41,-58l260 -432c20,-33 30,-55 32,-66 1,-10 -1,-22 -8,-35 -7,-13 -20,-25 -39,-36l-21 -13 11 -18 293 177c79,47 135,96 170,146 43,61 64,127 62,198 -2,71 -22,140 -63,207 -27,46 -60,84 -99,114 -38,30 -76,50 -115,62 -39,11 -78,15 -118,12 -40,-4 -85,-14 -135,-33 -22,-8 -54,-24 -96,-50l-294 -176zm622 -469l0 0 -307 512c-17,27 -25,45 -27,52 -1,8 1,15 5,22 6,10 17,20 34,30 53,33 106,39 156,19 69,-26 134,-92 197,-196 51,-85 78,-160 82,-226 3,-52 -8,-95 -33,-129 -17,-24 -53,-52 -107,-84zm1489 578l0 0c119,29 204,91 257,184 52,94 62,196 31,305 -27,93 -78,168 -153,223 -99,73 -215,91 -347,53 -132,-38 -222,-112 -268,-223 -37,-87 -42,-179 -14,-277 31,-109 95,-190 190,-241 95,-52 197,-60 304,-24zm-3 36l0 0c-68,-19 -129,1 -184,60 -44,48 -82,125 -112,230 -36,126 -41,225 -14,298 19,51 56,84 111,100 38,11 71,10 101,0 39,-14 74,-44 107,-90 32,-46 60,-110 83,-191 28,-98 40,-173 36,-227 -5,-53 -18,-94 -40,-122 -23,-28 -52,-47 -88,-58zm1304 135l0 0 395 462 -12 -329c-1,-46 -9,-77 -23,-92 -19,-22 -49,-31 -92,-29l-1 -21 253 -9 1 21c-32,6 -54,12 -65,19 -11,7 -19,18 -24,33 -6,15 -8,40 -7,77l22 637 -19 1 -540 -620 17 487c2,44 13,73 33,88 21,15 45,22 70,21l18 -1 1 21 -271 9 -1 -20c42,-2 71,-12 87,-30 16,-17 23,-46 22,-87l-19 -540 -17 -20c-17,-19 -32,-32 -44,-38 -13,-6 -31,-9 -54,-9l-1 -21 271 -10zm1486 -167l0 0 86 300 14 -4c47,-13 77,-38 89,-73 13,-35 14,-83 3,-141l21 -6 110 385 -20 6c-17,-41 -36,-72 -57,-95 -22,-23 -43,-36 -64,-41 -21,-3 -50,0 -85,10l60 207c11,41 20,65 26,73 6,8 15,14 26,17 11,3 27,1 48,-5l44 -12c69,-20 119,-52 152,-96 32,-43 48,-100 47,-171l20 -5 34 243 -636 183 -6 -20 25 -7c21,-6 37,-15 48,-27 8,-7 13,-18 14,-32 2,-10 -3,-33 -14,-70l-138 -484c-10,-34 -17,-54 -21,-61 -7,-11 -16,-19 -28,-23 -17,-7 -37,-6 -61,1l-24 7 -6 -21 616 -176 63 218 -21 6c-26,-51 -52,-85 -77,-102 -26,-18 -58,-28 -96,-28 -22,-1 -61,7 -116,23l-76 21zm1411 -727l0 0 144 211 -19 12c-44,-47 -95,-76 -152,-85 -57,-10 -106,-1 -148,26 -32,21 -52,46 -60,76 -8,29 -4,55 11,77 9,15 20,25 34,32 19,9 43,14 73,15 21,1 68,-3 139,-11 99,-12 172,-10 220,6 47,16 84,45 112,87 35,54 44,114 27,180 -17,66 -57,119 -122,161 -20,13 -41,24 -61,31 -21,8 -48,15 -83,21 -19,4 -34,9 -43,15 -9,5 -15,14 -20,26 -5,12 -7,27 -4,44l-17 11 -158 -243 18 -11c58,59 118,94 181,104 63,10 118,0 163,-29 36,-23 58,-51 66,-84 9,-33 4,-62 -12,-88 -10,-15 -23,-27 -41,-36 -17,-9 -38,-15 -63,-17 -24,-2 -64,0 -119,7 -77,9 -135,12 -174,8 -39,-3 -73,-13 -103,-29 -30,-16 -55,-39 -74,-69 -33,-51 -43,-107 -29,-168 15,-60 50,-109 107,-146 21,-13 43,-24 66,-32 17,-6 40,-10 68,-14 28,-3 46,-8 55,-13 8,-6 13,-13 14,-21 2,-8 -2,-23 -10,-45l14 -9zm1445 -224l0 0 15 15 -288 278 -15 -15 19 -17c16,-16 26,-31 30,-46 4,-11 3,-22 -3,-35 -3,-10 -18,-28 -45,-56l-350 -362c-27,-29 -45,-45 -55,-49 -10,-4 -22,-4 -36,-1 -14,4 -29,13 -44,28l-19 18 -14 -16 288 -278 14 15 -18 18c-16,15 -26,31 -30,46 -4,10 -3,22 2,35 3,10 18,28 45,56l350 362c27,28 46,45 56,49 10,3 22,4 36,0 14,-3 29,-12 44,-27l18 -18zm633 -1151l0 0 -143 229 46 67c15,22 30,38 43,46 19,12 37,13 55,3 10,-5 27,-24 51,-56l18 11 -135 216 -18 -11c11,-26 13,-51 7,-76 -7,-25 -28,-64 -63,-117l-374 -556 6 -9 679 99c65,9 108,11 130,4 17,-4 32,-16 46,-35l18 11 -197 314 -17 -11 8 -13c15,-25 23,-45 22,-60 0,-10 -5,-18 -15,-24 -6,-3 -12,-6 -20,-8 -3,-1 -18,-4 -45,-8l-102 -16zm-46 -6l0 0 -284 -43 161 239 123 -196z"/>
   <path class="fil1" d="M10500 8350c-3589,0 -6500,2911 -6500,6500 0,3589 2911,6500 6500,6500 3589,0 6500,-2911 6500,-6500 0,-3589 -2911,-6500 -6500,-6500zm0 12868l0 0c-3517,0 -6368,-2851 -6368,-6368 0,-3517 2851,-6368 6368,-6368 3517,0 6368,2851 6368,6368 0,3517 -2851,6368 -6368,6368z"/>
   <polygon class="fil3" points="9377,16006 9377,15532 9279,15532 9279,15708 9083,15708 9083,15532 8985,15532 8985,16006 9083,16006 9083,15796 9279,15796 9279,16006 "/>
   <path class="fil3" d="M10021 16006l103 0 -171 -474 -113 0 -169 474 103 0 31 -98 184 0 32 98zm-190 -178l0 0 65 -202 67 202 -132 0z"/>
   <polygon class="fil3" points="10417,15532 10417,16006 10747,16006 10747,15918 10515,15918 10515,15532 "/>
   <path class="fil3" d="M11278 15532l-113 0 -169 474 103 0 31 -98 184 0 32 98 103 0 -171 -474zm-122 296l0 0 66 -202 66 202 -132 0z"/>
   <polygon class="fil3" points="11743,15532 11743,16006 12072,16006 12072,15918 11840,15918 11840,15532 "/>
   <path class="fil3" d="M14015 16129c0,-38 15,-82 37,-112 0,-31 7,-57 25,-80 15,-75 24,-153 56,-220 -3,-6 -5,-11 -7,-17 26,-90 44,-181 47,-276 31,-83 10,-187 31,-276 -32,-134 29,-276 -1,-405 -70,20 -146,9 -219,9l0 -17c-96,0 -550,-32 -563,-60 -14,0 -38,15 -47,2 -78,-5 -80,29 -115,-52 -16,-22 -69,-73 -69,-102 -27,-9 -47,-33 -65,-58l-11 0c-4,14 -65,71 -82,71 0,9 2,18 4,27 -35,25 -85,54 -102,98 -105,38 -51,122 -25,196 14,2 27,-3 36,4 26,-26 254,13 298,9 4,2 7,4 13,7 23,-11 34,0 56,7 155,4 313,28 458,28 2,3 4,7 5,12 35,6 70,13 106,20 4,10 9,19 14,30 82,20 49,134 33,189 -47,34 -74,69 -136,76 -4,3 -7,7 -9,13 -46,0 -187,18 -224,-6 -42,6 -78,-5 -120,-13 4,-56 -9,-105 -18,-161 -22,0 -34,5 -53,0 -1,5 -3,11 -3,18 -91,27 -173,109 -267,120 2,45 16,91 16,132 24,6 54,15 74,6 8,2 15,4 22,7 2,-3 6,-5 9,-7 79,5 175,5 249,25 100,6 177,20 264,69l0 13c33,26 38,46 42,86 76,50 29,319 -29,377 -2,10 -2,19 -2,28 -11,3 -22,7 -31,13 -2,7 -2,14 -2,21 -7,2 -13,4 -18,6 -2,5 -4,11 -6,16 -9,2 -16,4 -23,5 -7,22 -77,57 -77,26 -41,29 -127,22 -176,18 -2,-5 -2,-9 -2,-13 -80,26 -121,-41 -190,-61 -50,-49 -55,-69 -68,-80 -5,-49 -5,-49 -12,-55 12,-132 -15,-116 -97,-202 -61,0 -116,-54 -185,-54 -11,18 -24,36 -44,45 -25,93 -141,187 -236,197 -13,5 -25,10 -36,18 -2,34 -13,51 -6,85 62,-14 266,29 307,33 30,22 79,40 113,53 46,40 136,56 167,107 29,0 64,25 73,51 11,-6 105,61 124,71 32,54 154,92 165,154 4,0 9,0 14,2 17,67 -23,231 -109,231 -5,5 -11,11 -16,18l-33 0c-2,2 -3,5 -5,9 -53,-4 -104,-6 -155,-7 -20,-19 -38,-35 -56,-51 -40,9 -64,-46 -102,-46 -3,-7 -7,-14 -9,-20 -43,-20 -152,-78 -171,-127 -41,-16 -70,-53 -98,-89 6,-5 13,-131 13,-133 35,-40 -14,-41 -14,-70 -26,5 -48,-11 -66,-28 -76,-11 -116,0 -160,62 -51,-5 -100,-2 -151,-9 -20,22 -43,24 -43,60 16,5 42,14 58,2 71,32 176,96 211,167 7,0 14,0 23,2 6,9 11,18 17,29 9,2 20,3 31,5 0,8 0,15 1,24 13,4 26,9 40,14 44,71 148,106 175,188 58,11 85,76 132,107 39,47 77,94 117,142l16 0c18,43 29,50 13,92 0,29 -18,38 -29,66 -15,-8 -53,38 -64,47 -22,0 -62,13 -104,13 -34,-22 -68,-49 -108,-57 -51,-40 -51,-40 -146,-94 -18,-24 -85,-62 -114,-69 -28,-35 -44,-42 -64,-64 -71,-25 -82,-103 -82,-163 31,-51 46,-57 57,-77 -46,-63 -57,-94 -140,-76 -104,-7 -217,16 -317,27 -3,37 -9,40 -5,73 25,9 45,16 64,34 25,0 60,39 78,55 89,51 209,142 260,234 3,2 9,4 14,6 0,7 2,16 4,25 49,24 149,149 158,206 5,1 13,3 20,5 2,13 4,27 7,42 6,0 11,0 17,2 9,31 41,120 67,127 2,23 3,49 5,74 -5,2 -11,4 -16,8 4,5 7,11 11,18 -15,31 -15,31 -27,40 1,3 3,7 7,12 -51,97 -87,175 -209,186 -26,18 -151,22 -164,-6 -27,-1 -92,-5 -102,-34 -94,-35 -196,-89 -272,-153 -100,-32 -171,-112 -276,-132 -4,5 -8,12 -9,20 -31,23 -29,51 -58,76 -30,111 -77,220 -104,334 -11,11 -18,37 -47,75 -11,65 94,267 138,311 60,1 140,12 189,49 61,9 125,34 171,80 5,-2 11,-2 18,-2l0 32c3,-5 9,-9 14,-12 11,20 18,47 40,58 -7,140 -38,200 -129,305 -31,78 -114,9 -171,47 -105,-27 -212,-76 -272,-174l-11 0c-24,-27 -45,-53 -67,-78l-15 0c-76,83 51,171 51,254 24,11 33,18 36,47 15,6 15,6 49,48 48,20 70,41 130,56 68,47 159,24 225,64 3,-4 7,-8 13,-9 74,23 248,-79 274,-144 131,-93 127,-338 54,-465 2,-7 4,-13 8,-18 -8,-9 -8,-9 -31,-19 -27,-39 -104,-163 -151,-163 -4,-7 -6,-15 -7,-22l-15 0c-7,-11 -13,-22 -18,-31 -29,0 -78,-18 -89,-42 -7,-1 -13,-3 -18,-3 -2,-7 -4,-15 -6,-20 -7,0 -14,0 -22,2 -3,-8 -7,-15 -9,-20 -23,-4 -43,-22 -65,-22 -42,-57 9,-213 29,-271 11,2 22,4 35,7 21,37 69,35 100,66 70,23 134,82 207,96 0,5 0,11 2,18 21,4 47,-2 54,24 9,-2 18,-4 29,-4 109,24 205,38 318,42 51,-76 171,-102 220,-184 73,-27 115,-118 193,-149 7,-34 63,-63 90,-90 20,-86 171,-120 199,-202 9,-7 18,-15 27,-20 -6,-20 202,-233 225,-280 31,-36 67,-62 84,-107 31,-22 29,-35 45,-66 31,-7 106,-147 116,-181 46,-20 30,-82 68,-108 27,-69 71,-123 91,-196 45,-60 45,-172 101,-229z"/>
   <path class="fil3" d="M9243 18688c-83,-84 -127,-60 -214,-9 -2,16 -4,27 -16,40 0,71 29,101 71,152 34,-1 69,-3 103,-3 24,-20 91,-104 62,-133 -2,-16 -4,-33 -6,-47z"/>
   <path class="fil3" d="M11035 18573c0,6 0,11 2,19 -40,34 -5,114 40,129l0 12c7,2 14,4 24,6 96,-9 105,-58 105,-153 -51,-64 -105,-56 -171,-13z"/>
   <polygon class="fil3" points="10052,18661 10059,18661 10059,18653 10052,18653 "/>
   <path class="fil3" d="M8678 18441c-3,-6 -7,-11 -9,-15 -23,-5 -45,-9 -67,-12 -51,-31 -251,-86 -311,-71 -16,-11 -33,-20 -47,-29 -64,-10 -178,-160 -222,-73 -7,0 -14,2 -20,4 0,94 187,169 262,187 29,43 196,11 253,67l32 0c4,5 8,11 11,18 46,11 135,33 160,71 33,-6 33,-6 46,-2 40,-20 61,-69 41,-111 -43,-16 -80,-34 -129,-34z"/>
   <polygon class="fil3" points="10052,18581 10059,18581 10059,18575 10052,18575 "/>
   <path class="fil3" d="M10775 18028l-14 0c-8,-9 -13,-18 -18,-27 -6,0 -11,2 -17,4 -2,-8 -3,-15 -5,-20 -46,-15 -38,-33 -60,-68 -13,-1 -26,-3 -38,-3 -15,-46 -104,-71 -126,-117 -5,-3 -11,-5 -14,-7 -33,44 -73,78 -118,104 -2,7 -4,14 -4,23 -78,57 -134,135 -211,193 -32,2 -122,-18 -134,-5 -33,-6 -89,1 -115,-13 -112,18 -241,-37 -349,-11 -7,-6 -7,-6 -140,-13 -5,4 -9,9 -12,15 36,40 74,91 116,122 16,34 51,47 69,83 -15,-4 -29,-5 -44,-7 -1,2 -3,3 -5,7 -87,-11 -218,18 -293,-31 -63,-9 -127,-29 -189,-47 2,-20 4,-40 8,-60 18,-11 72,-174 72,-204 50,-78 44,-198 98,-270 -20,-64 115,-309 144,-409 38,-26 40,-118 85,-156 64,19 122,50 186,59 -9,-40 -42,-70 -38,-119 -33,-55 -26,-155 -68,-197 0,-34 -23,-80 -30,-116 -6,0 -10,0 -13,2 -24,34 -33,67 -66,100 -1,14 0,29 -14,36 7,15 -38,49 -38,78 -58,58 -89,157 -142,226 -11,27 -24,78 -49,90 -5,26 -18,37 -25,62 -46,46 -59,120 -102,167 -13,69 -98,140 -109,215 -73,54 -98,183 -158,256 7,15 -35,42 -29,69 -26,53 -130,11 -173,0 -20,-31 -78,-5 -96,-42 -99,-52 -182,-103 -260,-194 -8,-2 -13,-4 -18,-6l0 -9 23 0c0,-9 0,-18 2,-25 13,-9 13,-9 34,-11 19,-78 137,-93 155,-171 16,-14 33,-36 56,-36 8,-42 60,-66 93,-95 49,-100 104,-23 165,2 46,-45 -23,-345 -27,-440 -16,19 -44,55 -69,55 -44,63 -94,111 -158,154 0,20 -15,33 -27,48 -60,29 -89,118 -155,140 -36,72 -127,118 -172,187 -55,22 -62,81 -115,100 0,1 0,3 2,7 -11,2 -20,-9 -38,-16 -4,-11 -8,-20 -11,-29l-17 0c-36,-51 -96,-93 -141,-139 40,-20 100,-107 143,-107 2,-7 4,-14 6,-22 91,-54 151,-158 249,-196 9,-47 61,-78 107,-89 27,33 102,69 140,91 2,-2 5,-4 9,-5 -6,-24 2,-44 -6,-68 4,-41 35,-367 13,-389 -34,29 -62,60 -105,73 -7,26 -33,40 -55,56 -3,-3 -7,-5 -9,-7 -36,42 -92,82 -142,109 -54,73 -218,131 -243,207 -29,15 -58,29 -87,46 -7,23 -47,45 -66,71 -34,7 -58,38 -83,61 -27,-16 -40,-47 -69,-63 0,-6 2,-11 3,-15 -40,-14 -56,-45 -91,-56 -9,-22 -12,-27 -29,-44 35,-45 117,-58 164,-98 15,4 49,-29 78,-29 2,-7 4,-14 7,-20l22 0c4,-7 7,-13 13,-18 85,-25 172,-85 251,-131 43,7 72,64 123,64 18,-60 24,-124 51,-180 9,-60 38,-182 85,-218 0,-53 35,-91 50,-142 7,-4 7,-4 38,9 -2,6 -2,11 -2,18l16 0c33,55 133,89 184,133 36,4 60,16 87,38 5,-4 11,-5 18,-7 9,9 9,9 13,27 9,-2 18,-4 29,-4 0,4 2,8 4,13 60,-13 110,-25 149,-78 107,-38 63,-267 14,-327 -156,7 -234,60 -298,209 -34,11 -76,-31 -98,-51 -91,-36 -160,-104 -149,-204 49,-36 80,-123 133,-167 -6,-80 -9,-154 -8,-236l-81 0c-22,29 1,55 5,91 -7,60 -22,225 -107,242 -22,-28 -37,-55 -64,-82 4,-9 7,-18 13,-26 -4,-7 -6,-14 -7,-19 1,-53 -11,-259 31,-286 16,-38 20,-47 56,-65 2,-35 5,-67 9,-100 -22,2 -53,16 -67,2 -35,41 -106,54 -157,85 -3,-2 -7,-4 -10,-5 -4,5 -6,12 -8,20 -7,-2 -14,-2 -22,-2 -1,3 -3,9 -5,14l-1056 400 -2 19 -346 109c13,86 36,151 101,215 51,-36 120,-58 178,-79l1023 -502c40,-14 40,-14 64,-13 11,42 11,42 60,142 3,0 7,2 13,4l0 23c30,9 70,133 103,166 2,7 4,16 6,25 54,40 72,162 127,180 2,16 3,34 5,53 -18,11 -36,21 -52,34 -2,7 -4,17 -4,26 -46,0 -58,71 -100,78 -13,42 -71,80 -111,92 -7,22 -111,106 -132,110 -2,5 -2,10 -2,16 -53,7 -73,40 -118,54 -2,6 -4,11 -4,19 -11,0 -20,0 -29,1 -6,19 -173,97 -198,97 -24,18 -40,29 -69,32 -129,60 -362,149 -509,133 -4,6 -4,6 -104,9 -7,-7 -207,-54 -223,-49 -2,-5 -4,-11 -4,-14 -9,1 -16,3 -23,5 -30,-29 -75,-44 -111,-51 -9,-27 -126,-74 -153,-89 -67,0 -89,-111 -149,-133 0,-30 -71,-149 -93,-141 -1,-11 -1,-20 -1,-29 -6,-2 -11,-4 -15,-6 -4,-7 -5,-13 -7,-18l-11 0c-7,-15 -40,-76 -35,-95 -7,-3 -14,-7 -20,-9 0,-27 -40,-127 -60,-147 -12,-73 -12,-73 -25,-111 -4,-109 -31,-267 20,-370 -6,-84 47,-184 74,-260 19,-9 40,-71 46,-91 38,-56 98,-116 127,-176 56,-28 109,-82 145,-131 26,-20 26,-20 57,-31 0,-6 0,-11 2,-16l12 0c0,185 44,365 62,552 18,18 25,56 29,82 33,22 62,28 99,29l5 -1c4,-7 9,-12 14,-17 14,2 26,5 36,10l112 -16c59,-16 168,-29 201,-62 95,17 204,-72 296,-54 4,-7 9,-13 15,-18 51,7 140,-33 191,-42 45,-35 114,-20 162,-51 21,11 39,-7 63,-16 4,2 7,3 13,7 42,-20 73,-27 120,-31 18,-18 51,-22 74,-25 6,5 11,12 18,20 -3,5 -5,11 -7,18 20,27 26,78 31,111 42,20 242,-204 242,-237 18,-9 34,-30 29,-50 -73,-8 -171,-8 -238,-26 -48,47 -178,0 -238,40l-44 6c-18,-33 -53,-51 -60,-90 11,-16 24,-32 36,-47 13,-38 24,-163 0,-187 -43,0 -110,11 -149,-7 -14,7 -27,5 -40,-4l0 -89c62,-76 62,-76 62,-87 -69,-40 -62,-204 -62,-275 -79,61 -47,184 -54,277 -69,89 -84,261 -45,367 -4,14 -6,31 -8,47 22,7 22,7 44,25 36,6 103,10 103,62 -12,6 -12,6 -34,29 -100,0 -251,42 -344,86 -16,-2 -41,-13 -50,5 -39,6 -75,11 -111,18 -60,40 -169,39 -240,48 -91,-33 -37,-133 -76,-193 1,-31 1,-31 -20,-313 11,-14 11,-47 -4,-61 5,-8 5,-77 13,-86 -28,-34 -11,-269 0,-280 -4,-61 3,-279 29,-314 1,-29 -2,-62 9,-85l18 0c2,5 4,11 7,16 73,7 156,93 216,93 4,5 8,12 11,20 4,-4 8,-6 11,-8 100,24 207,137 313,153 5,5 11,11 16,18 29,-29 6,-107 24,-145 -4,-155 16,-307 16,-460 9,-18 2,-36 0,-56 17,-38 31,-226 13,-262 -13,13 -40,2 -58,2 -53,29 -106,58 -157,89 -101,9 -232,134 -332,113 2,-30 -2,-42 14,-66 -9,-20 -3,-40 -1,-60 3,-2 7,-3 12,-5 8,-26 8,-26 6,-48 34,-60 31,-159 80,-208 -4,-6 -6,-11 -8,-17 26,-47 26,-47 50,-109 50,13 101,17 139,55 6,-2 13,-4 20,-6 102,29 213,80 322,98 15,15 116,49 140,49 71,40 222,35 276,89 27,0 27,2 48,15 78,13 156,29 230,56 17,191 17,191 24,198 105,-60 236,-49 343,-98 42,-7 55,-18 68,-18 3,-29 -35,-36 -55,-42l0 -16c-25,-4 -93,-33 -98,-51 -27,5 -56,-7 -71,-31 -9,-2 -16,-4 -24,-4 -1,-5 -3,-10 -5,-14 -27,-9 -62,-13 -78,-38 -13,-2 -25,-2 -38,-2 -2,-7 -4,-15 -6,-20 -62,0 -107,-55 -172,-62 -31,-16 -128,-76 -159,-76 -3,-6 -7,-11 -10,-15 -4,2 -8,4 -10,8 -47,-20 -47,-20 -68,-38 -42,3 -202,-75 -222,-95 -84,0 -155,-85 -236,-85 -2,-6 -2,-11 -2,-15 -38,-9 -58,-9 -78,-44 -6,4 -11,8 -15,11 -4,-5 -7,-9 -9,-12 -15,-2 -27,-4 -40,-6 -24,-31 -58,-22 -75,-56 -7,0 -14,0 -21,2 -9,-128 100,-211 125,-326 40,13 200,-51 247,-52 2,-6 4,-9 6,-13 29,4 76,-18 107,-26 11,-72 14,-165 14,-238 30,-49 -25,-161 66,-161 0,-8 0,-13 2,-18 52,-44 101,-146 169,-168 70,-70 54,-78 141,-38 0,8 2,15 4,24 24,7 31,31 56,38 24,74 144,127 175,200 40,20 65,69 105,96 15,76 107,115 126,187 34,49 87,118 105,175 7,0 15,0 24,2 11,32 32,94 65,109 -2,5 -2,11 -2,16 4,2 9,4 15,7 5,38 5,38 12,48 -29,10 -103,41 -136,41 0,59 -38,117 -42,178 -25,99 -29,153 -14,253l13 0c3,-20 3,-20 20,-36 0,-35 74,-108 103,-129 -2,-4 -2,-8 -2,-11 44,-22 71,-62 124,-82 47,9 96,18 145,29 2,4 4,7 6,13 32,11 78,21 105,43 2,-5 5,-10 9,-14 24,2 24,2 53,13 -49,-160 -136,-222 -280,-284 -29,-54 -44,-145 -87,-183 -35,-119 -104,-217 -166,-324 -7,-7 -14,-14 -21,-22 -29,-60 -109,-138 -124,-196 -5,-2 -9,-4 -13,-5 -5,-30 -16,-37 -38,-55 -25,-58 -100,-107 -112,-171 -71,-71 -158,-187 -193,-278 -7,-2 -15,-3 -20,-5 -5,-13 -11,-26 -16,-38 -15,-4 -68,41 -93,45 -2,7 -4,15 -6,22 -3,-4 -7,-6 -9,-7 -9,9 -9,9 -38,12 -29,38 -58,69 -102,91 -10,17 -20,42 -41,42 -37,40 -84,60 -109,105 -62,37 -102,87 -144,149 -16,9 -223,35 -234,24 -9,7 -100,7 -157,14 -3,75 -5,149 -7,226 16,22 9,165 -5,194 3,4 9,8 14,11 -3,7 -5,15 -7,22 2,2 4,5 7,9 -5,11 -9,24 -13,36 -5,0 -9,2 -12,4 -4,13 -8,25 -11,38 -6,0 -11,0 -17,2 -3,27 -16,56 -41,73 5,12 -40,58 -46,83 -12,4 -20,26 -31,31l0 18c-89,133 -134,286 -201,429 -4,24 -8,78 -29,89 0,57 -40,126 -49,186 -42,41 -13,143 -61,190 -3,53 -16,88 -30,139 -22,196 -66,368 -66,559 -5,2 -9,4 -12,6 9,32 5,94 0,129 -2,158 -2,321 14,481 -18,7 -18,7 -67,55 -4,-2 -7,-2 -9,-2 -27,34 -117,114 -153,114 -16,33 -78,77 -113,91 -3,13 -7,26 -10,40 -6,0 -11,0 -17,2 13,65 -116,133 -116,184 -22,36 -44,72 -66,109 -3,49 -7,127 -40,159 6,35 -14,73 0,102 -9,18 -3,28 0,46 -20,43 -14,160 8,205 -6,4 -11,7 -17,11 26,16 17,36 15,60 25,51 33,125 33,182 1,0 5,0 9,1 2,17 3,33 7,51 4,2 9,4 15,6 1,22 5,43 9,65 5,4 11,7 18,13 3,36 32,73 25,105 11,9 11,9 60,100 -3,2 -5,6 -7,9 65,73 104,162 185,224 0,4 2,7 4,13 54,63 143,107 213,150 80,22 167,64 239,104 2,-4 4,-5 8,-7 74,7 140,38 216,31 82,22 169,-17 251,-9 76,-40 132,-37 158,58 32,20 118,98 118,131 27,5 51,21 51,50 20,9 34,15 40,35 27,0 118,87 118,116 7,2 16,4 25,8 29,39 97,61 115,109 65,25 114,112 189,132 5,26 12,27 42,31 25,40 70,69 116,78 47,53 136,69 176,122 4,-2 7,-2 11,-2 2,6 4,11 7,17 38,-10 60,16 84,40 5,-2 11,-2 18,-2 16,25 229,105 273,121 0,4 1,8 3,13 9,-2 18,-3 29,-5 57,36 175,38 215,78 83,0 172,60 256,60 33,13 98,11 118,31 36,0 71,3 109,25 4,-4 9,-7 15,-9 25,16 329,60 339,49 26,20 91,-3 110,29 7,-2 16,-3 25,-5 -18,-44 -38,-73 -75,-107 -20,-60 -98,-91 -98,-160 11,-4 44,3 48,9 25,-15 229,3 259,23 66,4 131,8 197,11 85,46 152,131 238,178 12,-23 36,-52 67,-52 9,-42 73,-69 73,-102 25,7 58,-60 92,-71 2,-7 4,-15 6,-20 58,-24 69,-87 127,-102 7,-20 7,-20 25,-43 -5,-22 -12,-26 -14,-44 -33,-4 -73,-29 -84,-62zm-1910 -1724l0 0c4,78 40,149 -32,203 -24,9 -47,18 -71,27 -13,-23 -36,-32 -51,-52 -20,-115 18,-202 154,-178zm-1886 -2388l0 0c2,-4 4,-7 6,-11 52,0 91,-53 143,-45 0,61 0,123 2,185 -25,38 27,38 -33,47l0 -11c-12,-3 -25,-5 -36,-7l0 -11c-22,-13 -27,-20 -55,-20 -32,-49 -129,-31 -139,-96 36,18 74,-18 112,-31zm246 -1583l0 0c18,6 45,0 58,-13 132,-23 132,-23 183,-27 -3,55 -3,55 -16,89 2,2 4,6 7,9 -22,35 -13,78 -13,117 -45,45 -158,12 -227,34 -5,-3 -11,-7 -14,-11 -2,-56 -9,-156 22,-198zm-377 1614l0 0 -18 0c-2,-4 -3,-7 -5,-9 -9,-2 -18,-2 -26,-2 -2,-13 -2,-24 -2,-35 17,17 44,24 51,46zm-78 -42l0 0c2,0 6,2 9,4 -3,1 -7,5 -9,9l0 -13zm-18 -24l0 0 11 0 0 11 -11 0 0 -11zm2980 4427l0 0 -12 0 0 -11 12 0 0 11zm729 -5l0 0c-2,7 -2,14 -2,23l-13 0c-40,-52 -110,-98 -163,-136l0 -13c40,-34 78,-109 125,-118 2,-11 8,-43 28,-38 20,64 134,89 152,162 -44,18 -74,98 -127,120z"/>
   <polygon class="fil3" points="11973,18526 11973,18533 11978,18533 11978,18526 "/>
   <path class="fil3" d="M12469 18472c22,-2 44,-2 67,-2 89,-71 53,-86 18,-180 -116,-45 -160,107 -85,182z"/>
   <polygon class="fil3" points="9720,18308 9732,18308 9732,18297 9720,18297 "/>
   <path class="fil3" d="M12745 18074c-96,31 -98,85 -69,174 7,0 15,2 22,4 -2,3 -4,9 -4,14 8,-5 17,-11 26,-16 7,4 16,7 25,13 11,-11 15,-13 35,-13 25,-31 25,-31 49,-73 -11,-54 -28,-85 -84,-103z"/>
   <polygon class="fil3" points="10070,17981 10070,17988 10078,17988 10078,17981 "/>
   <polygon class="fil3" points="11895,17763 11895,17757 11887,17757 11887,17763 "/>
   <path class="fil3" d="M9694 17250c-5,-1 -9,-3 -13,-5 -96,51 -178,120 -178,243 -5,6 -9,11 -12,17l9 0c14,23 20,62 32,89 6,0 11,0 17,2 23,40 61,56 98,83 151,-11 192,-43 280,-151 12,-98 12,-98 20,-112 -18,-33 -35,-138 -86,-138 -60,-40 -92,-51 -167,-28zm131 273l0 0c-22,22 -62,42 -91,56 -4,-3 -7,-5 -9,-7 -7,2 -13,6 -18,9 -93,-25 -95,-43 -100,-140 27,-91 145,-149 212,-65 10,3 19,7 28,13 0,45 -8,89 -22,134z"/>
   <path class="fil3" d="M10821 17245c-40,11 -160,42 -200,29 -47,47 -187,-7 -229,55 -27,3 -160,21 -182,0 -27,-2 -107,0 -118,-24 -27,20 -36,54 -56,84 3,3 7,9 12,14 4,-4 8,-5 13,-7 24,14 57,18 89,34 24,6 69,4 84,19 63,-2 212,3 254,-51 102,-33 260,-20 373,-19 38,-21 43,-67 36,-109 -22,-21 -51,-9 -76,-25z"/>
   <path class="fil3" d="M11755 16822c14,-35 31,-51 67,-51 2,-18 2,-18 25,-73l22 0c0,-7 2,-14 4,-20 65,-49 45,-151 136,-189 13,-56 106,-124 147,-163 -1,-26 -3,-50 -5,-73 -18,-13 -36,-26 -53,-38 -18,18 -31,36 -60,36 -20,27 -54,64 -54,100 -9,0 -17,0 -24,2 -2,9 -2,18 -2,27 -25,15 -25,16 -36,44 -44,14 -45,96 -91,110 0,53 -83,148 -113,184 -74,31 -127,71 -127,155l13 0 0 18c53,-8 100,-69 151,-69z"/>
   <path class="fil3" d="M15157 15177c-4,-5 -6,-11 -8,-16 6,-55 -11,-300 -18,-306 -25,-110 -36,-130 -36,-154 -40,-98 -106,-184 -151,-276 -42,-47 -127,-95 -145,-153 -64,-31 -113,-80 -166,-127 -36,0 -74,-24 -102,-44 -21,0 -114,-7 -121,-18 -55,-5 -316,-63 -373,-22 -3,-3 -7,-5 -9,-7 -154,15 -318,85 -452,156 -2,29 0,46 25,53 5,33 16,65 55,75 -2,7 -2,14 -2,23 54,22 91,58 127,104 38,14 53,42 93,52 5,22 34,42 58,42 2,6 3,11 7,18 89,44 174,131 271,142 -2,-5 -4,-11 -6,-14 0,-160 -5,-324 -12,-484 14,2 14,2 32,-11 82,15 200,-18 266,48 5,-2 10,-4 18,-6 62,38 136,58 176,120 53,26 118,107 140,160 2,-2 4,-2 7,-2 13,38 55,78 55,125 5,0 11,0 16,2 2,15 6,29 9,44 38,47 38,118 69,173 18,90 102,387 66,423 20,55 -6,322 -49,365 18,48 -28,95 -33,144 -6,2 -11,3 -15,5 0,127 -165,291 -220,400 -10,5 -21,11 -30,16 -8,29 -49,60 -69,93 -30,27 -73,47 -91,84 -8,-2 -13,-4 -19,-6 -10,11 -20,22 -29,35l-12 0c7,25 -38,42 -57,49 -1,3 -3,9 -3,14 -6,0 -11,0 -17,2 -7,24 -134,100 -167,100 -2,6 -3,11 -5,18 -27,8 -47,24 -77,28 -49,49 -192,60 -258,70 0,40 -5,79 35,99 40,-26 104,-31 151,-59 45,0 192,-61 207,-92 129,-28 225,-169 342,-224 23,-47 76,-74 105,-120l13 0c14,-38 58,-78 92,-103 38,-77 120,-142 144,-226 5,-2 11,-3 18,-3 0,-9 0,-18 2,-27 34,-17 63,-111 78,-150 16,-114 40,-225 60,-339 2,-22 -4,-168 15,-186 -4,-2 -8,-3 -10,-5 0,-35 -5,-73 10,-102zm-1180 -812l0 0c-13,2 -25,3 -36,7 -15,-60 -102,-62 -115,-103 51,-10 102,-19 153,-28 4,24 -5,44 -2,124z"/>
   <polygon class="fil3" points="14953,16080 14958,16080 14958,16073 14953,16073 "/>
   <path class="fil3" d="M14391 15922c15,2 31,6 48,9 2,4 3,9 5,15 95,-15 184,-102 124,-202 -2,-7 -2,-14 -2,-22 -13,-3 -26,-5 -36,-7 -4,-7 -6,-15 -8,-22 -20,4 -40,-3 -54,-18 -124,55 -137,138 -77,247z"/>
   <path class="fil3" d="M14470 15504c27,2 27,2 41,13 11,-9 11,-9 50,-16 16,-15 32,-30 49,-44 32,-116 -13,-178 -126,-187 -42,20 -65,32 -93,71 2,3 6,7 10,11 -48,47 36,129 69,152z"/>
   <polygon class="fil3" points="13341,15377 13341,15382 13348,15382 13348,15377 "/>
   <path class="fil3" d="M12605 15041l0 32c-47,117 -3,184 87,259 2,-4 6,-6 10,-8 7,6 7,6 89,8 1,1 3,5 5,9 120,-33 173,-86 216,-206 -14,-141 -51,-185 -192,-223 -128,9 -137,71 -215,129zm77 51l0 0c3,-2 9,-4 14,-4l0 -16c15,-6 18,-19 60,-53 109,-18 142,47 127,154 -23,15 -52,46 -74,68 -8,-2 -15,-4 -22,-6 -7,17 -38,13 -56,15 -15,-18 -39,-31 -53,-53 0,-36 2,-71 4,-105z"/>
   <path class="fil3" d="M9589 13504c0,34 31,139 11,159 30,42 3,100 25,144 -24,47 22,107 5,158 13,13 11,65 11,82 29,36 -7,96 17,120 -4,29 -2,141 14,149 11,209 84,634 -207,692 -49,33 -431,96 -452,45 -102,-21 -189,-90 -264,-159 -2,-10 -2,-19 -2,-28 -5,-3 -9,-7 -12,-11 0,-18 1,-29 -11,-41 -4,-57 -6,-111 -8,-166 57,-176 113,-350 171,-525 -7,-7 -12,-14 -18,-22l-13 0c-21,48 -60,89 -67,142 -5,4 -9,7 -13,11 6,25 -45,124 -60,138 -27,149 -72,285 -78,440 -18,71 6,158 0,231 20,9 37,32 37,54 14,9 20,18 23,38 22,11 58,37 58,64 6,0 11,0 17,2 0,5 0,11 2,16 11,2 21,4 34,7 2,6 4,11 6,18 9,2 20,4 30,8 48,36 99,23 142,45 9,-3 18,-5 29,-7 2,4 4,9 7,14 86,-1 253,15 326,-21 60,0 216,-55 243,-97 86,-41 166,-169 197,-258 5,-38 5,-38 10,-450 -5,-2 -9,-4 -12,-6 -2,-74 -4,-149 -4,-223 -9,-69 -18,-138 -13,-207 -16,-11 -49,-464 -49,-478 -5,-4 -5,-48 -18,-111 6,-55 27,-78 75,-106 47,-47 29,-174 16,-238 -15,-18 -38,-25 -67,-49 -55,-12 -93,-83 -157,-83 0,36 -30,170 -16,185 -2,16 -2,16 -9,25 2,4 4,8 7,11 -23,49 4,255 37,288z"/>
   <path class="fil3" d="M11021 14645c-13,52 45,145 20,196 11,11 14,76 14,96 115,15 253,13 369,13 51,22 216,7 263,5 30,44 248,-16 300,26 22,-22 109,0 137,5 89,-9 198,-7 285,4 -9,-80 14,-169 22,-249 -18,-29 -64,-80 -100,-80 -2,-7 -4,-14 -6,-20 -5,-2 -9,-4 -12,-5l0 -17c-29,-5 -31,-11 -49,-34 -57,-49 -82,-66 -120,-126 -44,-21 -64,-69 -108,-94 -23,-47 -129,-164 -181,-184 -67,-91 -282,-78 -376,-80 -28,68 -68,168 -119,218 19,4 46,-1 55,19 2,-4 4,-6 7,-8 26,2 51,4 76,6 2,2 4,5 6,9 89,0 396,158 418,227 51,14 133,82 73,134 -24,-16 -195,-16 -247,-9 -10,-7 -10,-7 -108,-14 -40,16 -212,-6 -263,-13l-186 0c-1,-9 -3,-18 -3,-27 -46,-138 -55,-285 -86,-425 0,-55 -60,-366 -34,-391l-13 -13c-13,-207 -13,-207 -18,-225 2,-4 4,-7 7,-9 -12,-17 -16,-106 -7,-126 -15,-47 -13,-96 -13,-145 -7,-42 -14,-84 -20,-124 -14,28 -14,28 -34,42 0,2 -40,91 -42,106 13,90 53,269 24,358 32,83 -10,210 -6,305 -25,87 -49,176 -73,265 -18,20 -18,20 -43,73 -20,24 -60,56 -60,91 -20,13 -29,16 -35,42 -38,18 -56,63 -98,70 -11,46 -87,64 -114,106 -55,11 -113,54 -158,89 -6,-4 -10,-6 -13,-7 -31,21 -40,41 -85,41 -4,4 -8,8 -10,13 -105,51 -218,91 -323,135 -4,27 -7,54 -11,83 60,0 60,0 75,7 45,0 105,-20 140,15 0,-7 1,-13 3,-18 7,0 126,0 138,-13 93,-13 167,-42 255,-74 16,-20 16,-20 109,-80 7,-15 54,-60 94,-89 11,-19 9,-30 33,-37 7,-33 -27,-13 29,-43 13,-42 62,-84 62,-122 49,-75 83,-171 134,-247 6,5 6,5 -2,123 0,13 17,215 28,226z"/>
   <path class="fil3" d="M8195 14465c-56,-26 -56,-26 -64,-37 -45,-1 -141,-10 -163,33 -111,55 -191,289 -35,340 8,22 33,31 55,36 42,-2 151,-7 171,-47 87,-22 94,-163 98,-238 -15,-9 -17,-25 -19,-44l-43 -43zm-122 254l0 0c-27,2 -54,6 -80,9 -127,-47 -71,-134 -22,-214 48,-15 93,-35 140,-6 22,31 22,31 33,37 0,31 0,62 2,94 -24,18 -60,55 -73,80z"/>
   <polygon class="fil3" points="10150,14790 10150,14783 10143,14783 10143,14790 "/>
   <polygon class="fil3" points="12573,14790 12573,14783 12567,14783 12567,14790 "/>
   <path class="fil3" d="M12896 14534c-15,-20 -67,-98 -47,-124 -35,-43 -8,-103 -20,-145 0,-118 7,-340 -84,-431 -7,-22 -14,-43 -20,-65 -5,-2 -9,-4 -13,-6 6,-20 -10,-36 -23,-47 5,-18 -22,-80 -22,-109 -47,-58 -27,-234 24,-285 -2,-8 -4,-13 -6,-18 82,-82 -9,-139 -91,-95 -23,26 -47,51 -69,78 -54,11 -116,95 -156,131 -4,25 -4,25 -13,31 0,38 -20,127 -36,162 2,3 4,7 7,12 -13,84 9,111 27,186 20,-6 62,67 108,80 56,56 132,-4 181,-35 111,-7 137,202 124,282l16 0c0,20 -9,107 -16,111 4,3 9,7 14,11 -5,7 -5,7 -16,123 -49,40 -34,78 -56,135 -4,45 5,89 0,131 3,3 7,7 13,10 -4,35 14,91 50,102 100,-49 153,-120 124,-225zm-409 -743l0 0c-36,-28 -76,-40 -85,-91 -6,-2 -11,-4 -15,-6 -20,-112 36,-192 149,-171 0,4 2,9 4,15l16 0c76,85 53,218 -69,253z"/>
   <polygon class="fil3" points="13614,14692 13614,14699 13621,14699 13621,14692 "/>
   <path class="fil3" d="M10316 13640c36,-37 136,-51 136,23l24 0c0,8 1,15 3,24 6,4 11,7 18,11 9,42 55,73 55,113 78,45 103,209 181,267 0,23 24,36 35,58l36 0c0,-24 0,-47 2,-69 -3,-64 -36,-118 -36,-176 -47,-35 -58,-184 -104,-206 -5,-27 -31,-36 -36,-67 -40,-13 -33,-69 -69,-80 -11,-44 -91,-95 -87,-138 -89,-73 -178,-147 -282,-202 -4,-5 -7,-11 -9,-14 -45,-4 -153,-62 -184,-24 19,73 -29,145 19,216 5,53 23,62 43,113 64,25 126,111 171,163 38,0 38,0 84,-12z"/>
   <path class="fil3" d="M12863 12429c-20,24 -31,33 -38,62 -9,2 -18,4 -25,6 -9,16 -19,34 -28,52 -58,39 -167,175 -236,175l0 -24c-45,-27 -71,-78 -111,-114 -12,47 -25,94 -38,143 13,35 -25,286 20,307 26,-11 78,-41 87,-69 28,-5 97,-65 108,-89 5,2 10,4 18,6 18,-15 18,-58 58,-53 18,-14 18,-14 25,-34l28 0c0,-9 0,-17 1,-24 8,-4 15,-6 22,-7 0,-6 0,-11 2,-17 16,-11 35,-20 53,-29 111,-132 270,-231 410,-329 29,29 49,57 91,62 35,49 35,49 47,55 -1,16 -1,16 6,31 5,1 13,3 20,5 -2,7 -2,16 -2,25 6,4 13,8 20,13 -7,17 89,189 107,216 -38,40 -71,97 -121,122 -15,47 -68,49 -89,93 -8,2 -15,3 -20,5 -2,4 -4,7 -4,13 -29,4 -53,15 -60,40 -102,44 -204,94 -313,116 -38,-51 -56,-116 -49,-181 -5,-8 -5,-24 -41,-104l-17 0c-16,22 -56,113 -36,133 -11,18 7,45 -15,56 2,109 -5,122 -3,153 -15,21 -17,89 -8,116 -16,24 0,56 2,83 -3,0 -7,2 -11,4 22,15 24,138 28,164 5,1 11,3 16,5 25,-13 25,-13 42,-34 89,-30 96,-84 185,-33 9,82 -14,212 -20,287 27,44 42,80 78,116 26,66 77,80 138,104l0 13c11,-9 22,-17 33,-24 -5,-33 -18,-56 -31,-107 -16,-28 -36,-51 -36,-84 -64,-85 18,-107 18,-183 4,-4 7,-6 13,-8 -2,-7 -2,-12 -2,-18 23,0 120,9 134,-5 53,7 124,0 175,-6 47,4 200,20 243,-5 88,5 391,-35 382,33 18,21 24,32 24,59 16,17 16,17 32,51 35,6 69,13 106,20 3,-7 7,-14 11,-20 -13,-20 -66,-110 -89,-110 -22,-40 -33,-80 -73,-104 -2,-11 -4,-22 -4,-31 -38,-31 -122,-272 -111,-309 -20,-20 -23,-36 -23,-65 -26,-33 -46,-84 -55,-124 -5,-2 -9,-4 -13,-4 -10,-32 -38,-70 -29,-101 -9,-9 -16,-18 -23,-26 -33,-71 -144,-339 -204,-359 -2,-11 -3,-22 -3,-31 -66,-46 -79,-129 -133,-177 -49,0 -113,-138 -158,-167 -7,-34 -95,-121 -122,-127 -2,-9 -4,-18 -5,-25 -6,-2 -11,-2 -15,-2 -20,38 -51,72 -56,89 -67,25 -87,112 -147,152 -57,69 -75,80 -155,180 -3,-2 -7,-2 -11,-2zm758 671l0 0c-2,4 -4,7 -4,13 42,31 79,62 79,122 5,1 10,3 18,7 -2,5 -4,11 -6,16 33,22 75,187 71,231 -13,0 -25,2 -38,4 -2,-6 -4,-11 -4,-15 -12,4 -25,9 -38,15 -25,-13 -60,-4 -80,-17 -11,11 -258,-7 -276,-18 -4,2 -7,4 -9,7 -44,-29 -111,6 -164,-20 -20,8 -20,8 -58,6 9,-60 100,-155 156,-175 -1,-7 -1,-14 -1,-20 31,-20 36,-32 56,-40 47,-70 216,-132 298,-116z"/>
   <polygon class="fil3" points="13803,14045 13803,14038 13795,14038 13795,14045 "/>
   <path class="fil3" d="M6825 13938c2,2 3,5 5,9l18 0c-7,-22 -34,-29 -51,-46 0,11 0,22 2,35 8,0 17,0 26,2z"/>
   <path class="fil3" d="M6779 13909c-3,-2 -7,-4 -9,-4l0 13c2,-4 6,-8 9,-9z"/>
   <polygon class="fil3" points="6763,13881 6752,13881 6752,13892 6763,13892 "/>
   <path class="fil3" d="M14110 12986c2,9 3,20 5,30 49,50 68,117 98,180 28,17 53,53 50,86 23,20 39,42 48,72 64,21 73,238 95,297 26,1 26,1 56,12 2,-1 6,-3 10,-5 10,-66 19,-153 -8,-215 2,-7 4,-14 6,-20 -20,-29 -28,-47 -31,-81 -7,-2 -13,-2 -18,-2 -2,-16 -6,-24 -17,-35l0 -32c-7,-2 -14,-4 -20,-6 -11,-47 -56,-83 -89,-121 11,-15 -40,-131 -54,-150 0,-59 -49,-112 -80,-159 -33,-4 -55,3 -84,10 -5,40 -7,119 33,139z"/>
   <path class="fil3" d="M8326 13051c0,-11 0,-20 2,-29 25,-7 89,-76 89,-104 -13,2 -13,2 -80,-29 -11,13 -11,13 -15,40 -18,18 -54,78 -54,104 -39,16 -77,16 -118,16 -11,-40 -88,-147 -126,-169 -2,-11 -56,-105 -65,-109 -15,-76 -135,-82 -197,-83 17,36 80,134 118,152 19,38 77,58 77,102 7,0 14,0 22,2 22,31 118,125 65,165 6,11 6,11 0,89l36 0c15,-20 31,-40 48,-60 51,26 18,76 32,124 -12,18 -23,38 -34,58 -24,0 -31,-13 -46,-27l0 -20c-16,-8 -23,-26 -41,-26 0,66 52,115 105,155 20,-17 45,-68 55,-75 30,0 45,38 67,55 12,-9 25,-19 38,-26 5,-34 -11,-147 0,-158 -6,-49 2,-96 5,-145 6,-2 11,-2 17,-2z"/>
   <polygon class="fil3" points="12204,13300 12209,13300 12209,13293 12204,13293 "/>
   <path class="fil3" d="M12229 12655c-16,-7 -16,-7 -67,-55 -226,-38 -187,255 -156,384 -73,54 -35,160 -24,230 38,24 47,46 93,57 1,7 3,14 7,22 9,-4 20,-8 31,-9 165,61 169,-242 136,-326 2,-11 4,-20 5,-29 57,-76 11,-200 -25,-274zm-42 512l0 0c-25,13 -45,15 -69,24 -14,-11 -14,-11 -33,-11 -1,-9 -3,-18 -5,-25 -65,-44 -15,-177 76,-144 20,27 20,27 42,44 2,36 2,36 -11,112zm18 -278l0 0c-23,17 -34,29 -63,35 -53,-31 -89,-62 -106,-122 6,-74 15,-142 106,-142 16,9 33,18 49,28 0,5 0,10 2,16 5,2 11,4 18,5 13,62 13,62 13,108 -19,18 -17,45 -19,72z"/>
   <polygon class="fil3" points="10187,13155 10179,13155 10179,13160 10187,13160 "/>
   <path class="fil3" d="M10902 12408c-63,-86 -123,-117 -236,-106 -20,31 -76,28 -92,60 -118,82 -73,140 -84,258 7,9 15,18 22,28 9,54 60,58 103,89 28,-19 109,-11 137,-11 132,-66 174,-171 150,-318zm-74 92l0 0c-4,0 -7,2 -11,4 0,7 0,16 2,25 -46,49 -46,49 -58,55l0 13 -11 0 0 12c-24,0 -33,-1 -55,11 -56,-7 -70,-16 -111,-51l0 -41c-3,-2 -7,-4 -10,-4 0,-55 20,-62 32,-100 17,-7 20,-18 26,-35 38,-18 76,-36 120,-30 21,16 21,16 52,25 0,44 28,64 24,116z"/>
   <path class="fil3" d="M10221 12302c4,35 31,111 64,133 16,-2 32,-4 49,-6 9,-16 20,-40 43,-36 42,-27 73,-118 113,-158 18,-60 40,-102 80,-145 -2,-4 -4,-8 -6,-11 35,-53 70,-115 93,-171 64,-96 136,-200 195,-298l12 0c11,-35 42,-91 86,-91 7,33 22,60 32,91 22,145 26,292 51,436 -3,0 -7,2 -11,4l6 38 13 0c-11,65 14,125 7,187 27,27 43,280 42,347 23,15 25,22 29,47 12,4 27,8 42,13 60,-9 83,-7 129,-53 25,-72 98,-183 98,-259 -22,-2 -44,-2 -66,-2 -2,2 -3,5 -5,9 -18,-2 -37,-4 -53,-4 -22,-47 -22,-47 -40,-67 -14,-60 -158,-467 -107,-518 -6,-7 -11,-13 -15,-18 13,-18 9,-46 -5,-60 13,-26 5,-171 5,-207 13,-28 13,-28 13,-57 62,-90 147,-170 247,-216 24,-34 48,-54 82,-74 -9,-19 31,-37 40,-42 18,-40 53,-73 60,-120 -27,-6 -44,-7 -65,-24 -113,0 -229,-65 -348,-72 -16,-17 -339,-80 -379,-60 0,16 0,16 -8,29 2,2 4,5 8,9 0,87 40,169 61,252 30,46 108,215 42,248 -23,65 -89,105 -111,172 -38,33 -61,111 -98,129 -2,6 -2,11 -2,17 -21,14 -41,29 -61,45 -11,33 -95,154 -131,154 -11,60 -104,71 -104,120 -9,0 -16,0 -23,2 -2,6 -4,11 -4,17 -54,23 -105,65 -160,79 9,68 27,126 42,191l18 0zm1139 -1274l0 0c2,0 6,2 10,4 -4,2 -8,4 -10,7l0 -11zm-321 2l0 0c74,9 149,33 221,44l0 22c-61,52 -107,118 -174,169 -2,5 -4,11 -4,18l-18 0c-16,-24 -49,-229 -25,-253z"/>
   <path class="fil3" d="M9789 11134c9,13 12,47 23,71 -13,89 31,185 37,276 14,78 36,182 23,262 9,51 37,368 0,405 2,2 6,4 9,7 0,60 -54,93 -100,127 11,58 93,117 93,166 45,11 84,118 120,154 0,29 29,58 53,73 58,-17 -9,-553 7,-645 -4,-4 -11,-228 2,-240 -31,-173 -20,-364 -31,-538 2,-4 3,-7 7,-9 -16,-22 2,-53 -20,-75 -9,-136 -18,-272 -25,-407 -20,-3 -20,-3 -95,2 0,-5 2,-11 4,-14 -35,9 -106,9 -151,18 2,2 5,3 9,7 6,105 51,273 35,360zm245 1457l0 0 7 0 0 6 -7 0 0 -6z"/>
   <polygon class="fil3" points="10041,12591 10034,12591 10034,12597 10041,12597 "/>
   <polygon class="fil3" points="10192,12548 10192,12555 10197,12555 10197,12548 "/>
   <path class="fil3" d="M11449 11837c-7,80 86,153 153,185 15,53 111,95 160,106 2,4 4,9 6,14 14,-3 14,-3 47,6l0 13c21,-4 21,-4 54,5 87,-14 238,5 300,-75 7,-130 7,-130 15,-139 -17,-40 -19,-86 -22,-129 3,-2 7,-4 11,-6 -4,-2 -8,-3 -11,-3 -6,-39 -29,-79 -29,-120 54,-39 196,116 256,136 2,9 4,18 7,27 49,16 53,11 93,53 9,2 18,3 27,5 2,8 4,15 7,22 8,0 15,0 24,2 13,25 67,45 95,54 56,-41 259,-21 290,-83 -20,-13 -31,-33 -54,-47 -2,-9 -2,-17 -2,-24 -47,-9 -113,-69 -140,-107 -16,7 -129,-106 -162,-106 -7,-21 -21,-27 -43,-31 -24,-36 -48,-47 -86,-69 -67,-78 -183,-120 -263,-192 -33,0 -149,36 -173,60l-34 0c-48,47 -133,29 -120,107 3,2 7,4 11,5 12,42 12,42 12,69 55,48 28,220 24,269 -82,99 -191,89 -309,55 -2,-6 -4,-11 -5,-15 -55,-16 -75,-21 -115,-61 -9,3 -16,9 -24,14z"/>
   <path class="fil3" d="M9094 11172c-16,-4 -16,-4 -25,5 -16,-1 -16,-1 -44,6 -23,24 -227,96 -270,96 -80,37 -106,57 -162,84 -49,5 -96,29 -131,63 -16,66 -62,164 -22,229l31 0c67,-49 207,-40 285,-36 20,7 40,15 60,24 26,31 51,61 79,94 -4,20 -2,26 9,42 0,125 -155,145 -235,209 -9,-2 -9,-2 -31,9 0,38 6,55 15,85 91,-18 192,-29 276,-70 84,9 204,-51 256,-115 49,-24 95,-111 108,-167 0,-111 -139,-145 -220,-178 -8,0 -15,0 -20,2 -4,-8 -8,-15 -11,-20l-44 0c-3,-6 -7,-9 -9,-13 -40,-2 -65,-11 -100,-20 13,-22 193,-75 227,-75 102,-50 247,-47 345,-105 42,-73 46,-200 62,-283 0,0 -410,96 -429,134z"/>
   <path class="fil3" d="M8466 11170c1,2 3,6 5,9 27,-12 126,-16 133,-27 56,-15 112,-76 165,-76l0 -17c66,-12 118,-114 195,-127 14,-44 158,-78 189,-63 1,-4 5,-6 9,-8 40,2 80,4 121,6 20,-26 28,-46 31,-82 -41,-2 -303,-38 -321,-9 -144,31 -195,158 -324,212 -65,66 -336,31 -261,180 18,0 38,0 58,2zm787 -349l0 0 12 0 0 8 -12 0 0 -8z"/>
   <path class="fil3" d="M11370 11032c-4,-2 -8,-4 -10,-4l0 11c2,-3 6,-5 10,-7z"/>
   <polygon class="fil3" points="9265,10821 9253,10821 9253,10829 9265,10829 "/>
  </g>
 </g>
</svg>
